<svg width="97" height="96" viewBox="0 0 97 96" fill="none" xmlns="http://www.w3.org/2000/svg">
<rect x="0.5" width="96" height="96" rx="48" fill="#080B27"/>
<path d="M48.316 21.4881C48.6462 21.0749 49.0552 20.7312 49.5191 20.4771C49.983 20.223 50.4928 20.0634 51.0188 20.0076C51.5448 19.9518 52.0767 20.0009 52.5836 20.152C53.0905 20.3032 53.5624 20.5533 53.972 20.8881L67.02 31.5441C67.7376 32.13 68.2295 32.9467 68.4119 33.855C68.5943 34.7632 68.4558 35.7066 68.02 36.5241C66.8792 36.1754 65.6929 35.9988 64.5 36.0001H63.3L64.492 34.6401L57.62 29.0281L51.952 36.0041H46.796L54.52 26.5001L51.44 23.9841L41.848 36.0001H36.728L48.316 21.4881ZM58.5 56.0001C57.9696 56.0001 57.4609 56.2108 57.0858 56.5859C56.7107 56.9609 56.5 57.4697 56.5 58.0001C56.5 58.5305 56.7107 59.0392 57.0858 59.4143C57.4609 59.7894 57.9696 60.0001 58.5 60.0001H62.5C63.0304 60.0001 63.5391 59.7894 63.9142 59.4143C64.2893 59.0392 64.5 58.5305 64.5 58.0001C64.5 57.4697 64.2893 56.9609 63.9142 56.5859C63.5391 56.2108 63.0304 56.0001 62.5 56.0001H58.5ZM28.5 38.0001C28.5 37.4697 28.7107 36.9609 29.0858 36.5859C29.4609 36.2108 29.9696 36.0001 30.5 36.0001H32.732L35.912 32.0001H30.5C28.9087 32.0001 27.3826 32.6322 26.2574 33.7574C25.1321 34.8827 24.5 36.4088 24.5 38.0001V62.0001C24.5 64.6522 25.5536 67.1958 27.4289 69.0712C29.3043 70.9465 31.8478 72.0001 34.5 72.0001H64.5C66.6217 72.0001 68.6566 71.1572 70.1569 69.6569C71.6571 68.1566 72.5 66.1218 72.5 64.0001V48.0001C72.5 45.8784 71.6571 43.8435 70.1569 42.3432C68.6566 40.8429 66.6217 40.0001 64.5 40.0001H30.5C29.9696 40.0001 29.4609 39.7894 29.0858 39.4143C28.7107 39.0392 28.5 38.5305 28.5 38.0001ZM28.5 62.0001V43.6601C29.124 43.8801 29.8 44.0001 30.5 44.0001H64.5C65.5609 44.0001 66.5783 44.4215 67.3284 45.1717C68.0786 45.9218 68.5 46.9392 68.5 48.0001V64.0001C68.5 65.061 68.0786 66.0784 67.3284 66.8285C66.5783 67.5787 65.5609 68.0001 64.5 68.0001H34.5C32.9087 68.0001 31.3826 67.3679 30.2574 66.2427C29.1321 65.1175 28.5 63.5914 28.5 62.0001Z" fill="#204FFE"/>
<path d="M66.5 72.9375C72.5406 72.9375 77.4375 68.0406 77.4375 62C77.4375 55.9594 72.5406 51.0625 66.5 51.0625C60.4594 51.0625 55.5625 55.9594 55.5625 62C55.5625 68.0406 60.4594 72.9375 66.5 72.9375Z" fill="#EB3795" stroke="#EB3795" stroke-width="2.625" stroke-linecap="round" stroke-linejoin="round"/>
<path d="M70.4375 58.0625L62.5625 65.9375M62.5625 58.0625L70.4375 65.9375" stroke="white" stroke-width="2.625" stroke-linecap="round" stroke-linejoin="round"/>
</svg>
