<svg width="13" height="13" viewBox="0 0 13 13" fill="none" xmlns="http://www.w3.org/2000/svg">
<path id="Icon" d="M4.78133 5.06671C4.90672 4.71026 5.15421 4.4097 5.47998 4.21825C5.80574 4.02679 6.18874 3.95681 6.56116 4.02069C6.93358 4.08457 7.27137 4.27819 7.51471 4.56726C7.75805 4.85632 7.89123 5.22219 7.89067 5.60004C7.89067 6.66671 6.29067 7.20004 6.29067 7.20004M6.33333 9.33337H6.33867M11.6667 6.66671C11.6667 9.61223 9.27885 12 6.33333 12C3.38781 12 1 9.61223 1 6.66671C1 3.72119 3.38781 1.33337 6.33333 1.33337C9.27885 1.33337 11.6667 3.72119 11.6667 6.66671Z" stroke="#B3B3B3" stroke-width="0.964874" stroke-linecap="round" stroke-linejoin="round"/>
</svg>
